<svg width="127" height="94" viewBox="0 0 127 94" fill="none" xmlns="http://www.w3.org/2000/svg">
<g filter="url(#filter0_d_36_20)">
<path d="M4 86V2.38462H25.2445V11.6154C28.3747 7.76923 31.8642 4.8718 35.7128 2.92308C39.5614 0.974359 43.8206 0 48.4903 0C53.7758 0 58.2915 1 62.0375 3C65.7835 4.94872 69.042 8.05128 71.8131 12.3077C74.738 8.20513 78.2018 5.12821 82.2044 3.07692C86.207 1.02564 90.6714 0 95.5977 0C104.013 0 110.684 2.46154 115.611 7.38462C120.537 12.3077 123 19.0256 123 27.5385V86H100.909V32.1538C100.909 28.1026 99.8055 24.9744 97.599 22.7692C95.4437 20.5128 92.4161 19.3846 88.5162 19.3846C84.1544 19.3846 80.6906 20.8205 78.1248 23.6923C75.5591 26.5128 74.2762 30.3846 74.2762 35.3077V86H52.4159V32.3077C52.4159 28.2051 51.3383 25.0256 49.1831 22.7692C47.0791 20.5128 44.1028 19.3846 40.2542 19.3846C35.8924 19.3846 32.4286 20.8205 29.8629 23.6923C27.3484 26.5641 26.0912 30.4872 26.0912 35.4615V86H4Z" fill="url(#paint0_linear_36_20)"/>
</g>
<defs>
<filter id="filter0_d_36_20" x="0" y="0" width="127" height="94" filterUnits="userSpaceOnUse" color-interpolation-filters="sRGB">
<feFlood flood-opacity="0" result="BackgroundImageFix"/>
<feColorMatrix in="SourceAlpha" type="matrix" values="0 0 0 0 0 0 0 0 0 0 0 0 0 0 0 0 0 0 127 0" result="hardAlpha"/>
<feOffset dy="4"/>
<feGaussianBlur stdDeviation="2"/>
<feComposite in2="hardAlpha" operator="out"/>
<feColorMatrix type="matrix" values="0 0 0 0 0 0 0 0 0 0 0 0 0 0 0 0 0 0 0.25 0"/>
<feBlend mode="normal" in2="BackgroundImageFix" result="effect1_dropShadow_36_20"/>
<feBlend mode="normal" in="SourceGraphic" in2="effect1_dropShadow_36_20" result="shape"/>
</filter>
<linearGradient id="paint0_linear_36_20" x1="63.8079" y1="5.57693" x2="63.8079" y2="158.327" gradientUnits="userSpaceOnUse">
<stop stop-color="#01CAEF"/>
<stop offset="1" stop-color="#0B3156"/>
</linearGradient>
</defs>
</svg>
