<svg xmlns="http://www.w3.org/2000/svg" version="1.1" xmlns:xlink="http://www.w3.org/1999/xlink" xmlns:svgjs="http://svgjs.com/svgjs" width="24" height="17"><svg width="24" height="17" viewBox="0 0 24 17" fill="none" xmlns="http://www.w3.org/2000/svg">
<path d="M0.860352 17V1.07715H4.90332V2.83496C5.49902 2.10254 6.16309 1.55078 6.89551 1.17969C7.62793 0.808594 8.43848 0.623047 9.32715 0.623047C10.333 0.623047 11.1924 0.813477 11.9053 1.19434C12.6182 1.56543 13.2383 2.15625 13.7656 2.9668C14.3223 2.18555 14.9814 1.59961 15.7432 1.20898C16.5049 0.818359 17.3545 0.623047 18.292 0.623047C19.8936 0.623047 21.1631 1.0918 22.1006 2.0293C23.0381 2.9668 23.5068 4.24609 23.5068 5.86719V17H19.3027V6.74609C19.3027 5.97461 19.0928 5.37891 18.6729 4.95898C18.2627 4.5293 17.6865 4.31445 16.9443 4.31445C16.1143 4.31445 15.4551 4.58789 14.9668 5.13477C14.4785 5.67188 14.2344 6.40918 14.2344 7.34668V17H10.0742V6.77539C10.0742 5.99414 9.86914 5.38867 9.45898 4.95898C9.05859 4.5293 8.49219 4.31445 7.75977 4.31445C6.92969 4.31445 6.27051 4.58789 5.78223 5.13477C5.30371 5.68164 5.06445 6.42871 5.06445 7.37598V17H0.860352Z" fill="url(#paint0_linear_34_21)"></path>
<defs>
<linearGradient id="SvgjsLinearGradient1000" x1="12.5" y1="1.25" x2="12.5" y2="30.625" gradientUnits="userSpaceOnUse">
<stop stop-color="#01CAEF"></stop>
<stop offset="1" stop-color="#0B3156"></stop>
</linearGradient>
</defs>
</svg><style>@media (prefers-color-scheme: light) { :root { filter: none; } }
</style></svg>